<?xml version="1.0" encoding="utf-8"?>
<!-- Generator: Adobe Illustrator 27.5.0, SVG Export Plug-In . SVG Version: 6.00 Build 0)  -->
<svg version="1.1" xmlns="http://www.w3.org/2000/svg" xmlns:xlink="http://www.w3.org/1999/xlink" x="0px" y="0px"
	 viewBox="0 0 500 500" style="enable-background:new 0 0 500 500;" xml:space="preserve">
<g id="BACKGROUND">
	<rect style="fill:#FFFFFF;" width="500" height="500"/>
</g>
<g id="OBJECTS">
	<path style="fill:#010101;" d="M308.547,461.716c-20.259,0.729-21.385,16.094-21.385,16.094h63.029l-1.508-9.504l-13.549-28.322
		c-0.678-1.417-2.31-2.101-3.796-1.59l-2.775,0.954c-7.404-14.583-17.523-34.912-19.227-40.373
		c-1.081-3.465-3.243-10.862-5.66-18.558l12.585,12.125l-25.551-56.403l4.751-56.208c0.106-0.893,0.167-1.764,0.191-2.611
		c0.032-0.731,0.04-1.454,0-2.163c-0.135-4.398-0.922-7.822,0.035-9.182c1.669-2.373,3.236-0.917,3.007-2.378
		c-0.229-1.461-5.501-0.945-5.501-0.945s2.292-2.292,4.641-3.967c1.184-0.844-2.683-0.527-7.016,1.155
		c2.357-9.059,6.117-22.773,6.117-23.447c0-0.966-3.624-5.073-2.657-6.764c0.966-1.691,4.107-4.59,2.657-6.523
		c-1.45-1.933,2.202-5.328,0.376-7.254c-1.826-1.926,0.977-2.718-0.618-8.449c-0.374-1.344-1.002-2.841-1.738-4.346
		c0.769-7.219,0.476-13.46-0.236-19.211l11.56-31.309l-3.802,1.921c1.987-5.154,4.176-10.897,6.12-16.029
		c1.022,2.797-1.896,11.554,0.582,10.315c2.238-1.119,1.188-8.145,0.74-13.811c2.42-6.409,4.211-11.206,4.288-11.478
		c0.111-0.389-0.597-0.806-1.335-1.328l4.32-7.522c0.119,0.089,0.241,0.176,0.374,0.252c1.796,1.031,4.088,0.412,5.12-1.384
		c1.031-1.796,0.412-4.088-1.385-5.12c-1.267-0.728-2.773-0.619-3.918,0.13c0.021-0.415-0.033-0.826-0.143-1.221
		c0.06-0.182,0.111-0.368,0.144-0.559c0.952,0.982,2.398,1.418,3.794,0.985c1.978-0.613,3.085-2.713,2.473-4.692
		c-0.306-0.988-0.983-1.759-1.831-2.206c-0.676-2.035-2.445-4.22-2.702-5.243c-0.197-0.785-1.634-5.768-3.289-11.605l5.51,4.56
		l-8.045-20.858c2.604-3.204,3.919-7.933,2.852-12.937c-1.988-9.33-4.418-17.549-5.634-22.32c-1.592-6.246-4.322-5.258-5.079-3.68
		c-1.011,2.107,1.733,5.457,2.272,13.429c0,0-2.088-5.231-3.317-8.079c-2.05-4.75-2.838-6.563-4.245-7.076
		c-1.407-0.512-4.103,0.85-2.187,4.74c3.052,6.199,5.009,11.914,4.755,12.21c-0.254,0.296-3.51-5.925-3.739-6.575
		c-0.228-0.651-4.44-8.234-5.951-8.73c-1.53-0.502-3.227,0.41-2.915,2.162c0.312,1.752,4.653,8.49,5.555,11.455
		c0.348,1.146,0.685,4.458,0.685,4.458s-7.008-13.614-8.658-14.596c-1.419-0.845-3.261,0.018-3.382,1.322s7.527,17.102,7.951,18.194
		c0.425,1.092,1.336,4.709,1.336,4.709l-3-2.899c0,0-3.809-4.121-5.853-1.276c-1.642,2.285,2.28,4.527,3.456,6.926
		c0.994,2.028,4.591,12.106,13.487,13.011c1.008,6.516,1.307,17.116,2.003,17.336c0.861,0.271,1.982-5.143,1.982-5.143l2.284,7.449
		l0.738-3.505c1.16,5.478,2.339,11.15,3.029,14.684c-1.38,0.864-2.08,2.55-1.62,4.182c-0.55,1.637,0.098,3.483,1.63,4.402
		l-6.371,11.094c-1.12,0.343-1.538-3.483-1.659-5.416c-0.121-1.933-1.087,0.725-2.657,7.006c-1.41,5.638-7.88,23.532-14.868,33.953
		l0.926-5.594l-7.418,13.099c-3.521-1.633-7.523-2.83-11.836-3.341l-5.225-9.497c0.369-0.471,0.715-0.961,1.055-1.455
		c1.422-2.146,3.879-6.563,4.759-12.546c0.108,0.038,0.219,0.064,0.33,0.089c0.26,0.055,0.656,0.104,1.134,0.054c0,0,0,0,0-0.001
		c0.945-0.121,1.892-0.623,2.652-1.425c0.072-0.078,0.144-0.155,0.215-0.241c0.22-0.262,0.423-0.547,0.598-0.863
		c0.664-1.201,0.813-2.508,0.535-3.613c0.946-0.85,1.812-1.922,2.51-3.184c0.342-0.619,0.619-1.248,0.845-1.877
		c-0.8-0.322-1.366-1.102-1.366-2.017c0-0.787,0.422-1.471,1.048-1.853c-0.922-0.253-1.604-1.089-1.604-2.091
		c0-0.415,0.122-0.799,0.324-1.129c-1.091-0.117-1.944-1.029-1.945-2.151c-1.336-0.104-2.795,0.349-4.164,1.273l0.292-5.35
		c0.108-1.973-0.003-3.907-0.301-5.782c0.953-0.652,1.774-1.565,2.34-2.71c1.256-2.541,0.917-5.466-0.642-7.452
		c1.349-3.275,0.177-7.039-2.765-8.592c-0.665-0.351-1.367-0.552-2.075-0.631c-0.437-1.71-1.508-3.203-3.102-4.045
		c-0.993-0.524-2.065-0.728-3.118-0.657c-0.511-1.481-1.515-2.752-2.939-3.503c-2.232-1.178-4.862-0.754-6.78,0.846
		c-0.536-0.747-1.23-1.38-2.075-1.826c-3.083-1.628-6.936-0.21-8.606,3.167c-0.385,0.779-0.614,1.595-0.71,2.408
		c-2.571,0.12-5.056,0.599-7.405,1.391c0.831,0.834,1.293,2.018,1.132,3.276c-0.277,2.161-2.253,3.688-4.414,3.411
		c-0.799-0.103-1.51-0.439-2.076-0.93c0.009,0.218,0.011,0.438-0.018,0.662c-0.277,2.161-2.253,3.688-4.414,3.411
		c-0.021-0.003-0.04-0.011-0.062-0.014c0.365,0.693,0.533,1.497,0.425,2.333c-0.277,2.161-2.253,3.688-4.414,3.411
		c-0.873-0.112-1.633-0.51-2.222-1.077c-1.374,3.007-2.226,6.313-2.417,9.813l-0.332,6.081c-1.77-1.144-3.693-1.48-5.287-0.71
		c-2.977,1.438-3.672,6.162-1.552,10.551c0.627,1.298,1.433,2.417,2.331,3.318c-0.319,1.024-0.253,2.247,0.252,3.418
		c0.469,0.915,1.431,1.896,3.411,2.207l0.095,2.322c1.35,11.996,10.237,21.88,22.029,24.488c1.349,0.268,8.24,1.414,14.425-1.778
		c0,0-2.139,1.833-5.111,3.241l1.158,2.105c-4.102,2.071-8.226,4.92-12.27,8.706c-0.755,0.707-1.335,1.445-1.8,2.206
		c-3.324-0.029-7.19-0.145-11.553-0.521l4.998-6.648l-33.015-5.626l-23.711-35.381l0.847,7.895
		c-3.634-4.31-7.797-8.928-11.576-13.501l-0.527-1.575l4.125,1.273l-9.966-13.401c6.459-8.203,2.128-19.349,1.102-21.548
		c-1.175-2.518-6.593-7.395-7.479-5.946c-1.9,3.109,1.179,6.274,1.179,6.274l-1.75,4.858c0,0-2.441-4.273-3.047-5.329
		c-0.607-1.056-9.814-17.082-10.949-17.835c-1.135-0.753-3.2,0.048-3.443,1.748c-0.282,1.976,7.74,16.186,7.74,16.186
		s-2.965-2.143-3.666-3.173c-1.813-2.666-6.636-9.813-7.851-11.209s-3.466-0.866-4.058,0.7c-0.585,1.548,5.265,9.461,5.643,10.07
		c0.378,0.61,3.941,6.945,3.535,6.958c-0.406,0.013-6.572-8.026-10.654-11.209c-3.557-2.774-5.27-1.69-5.773-0.216
		c-0.503,1.474,4.36,4.756,6.723,6.952c2.364,2.196,4.99,7.346,4.99,7.346c-6.105-5.64-14.193-6.724-15.453-5.752
		c-1.26,0.972-1.139,3.105,3.893,4.06c5.032,0.955,12.738,8.372,17.026,15.909c2.422,4.257,6.472,6.482,10.452,6.857l6.221,14.422
		l1.799-3.965c1.808,3.45,5.382,9.607,9.236,16.043l-6.542-3.047l33.015,49.998l38.458,7.314l-6.838-3.728l8.073-4.593l-2.566-2.119
		c3.64,1.148,7.26,2.384,10.548,3.504c0.174,1.09,0.353,2.204,0.5,3.345c1.247,9.651,4.375,21.505,8.087,29.83
		c1.41,6.723,1.888,15.762,2.829,15.762c0.872,0-1.033-4.314-0.133-10.561c1.463,2.373,2.964,4.073,4.437,4.783
		c8.019,3.865,16.463,9.824,16.399,15.3c-0.027,2.277-1.247,5.917-2.663,9.395c-6.18-4.393-9.559-4.603-5.97-0.461
		c0,0-5.214-2.513-1.693,3.617c-3.058,2.119-5.468,5.897-6.467,10.48h0l-5.627,18.397l-7.883,14.395
		c2.055-0.629,4.345-1.279,5.054-1.279c1.375,0-12.529,24.6-12.529,24.6v-3.82l-3.973,7.487l1.33-8.512v0l-15.317,27.97
		c0,0,2.181,14.173,3.389,15.381c1.208,1.208,2.416,3.141,2.416,3.141l0.483,6.281l13.184,27.298l-0.706-8.336l5.94,12.619
		c0,0,8.808,21.247,15.124,36.201l-4.639,1.594c-1.808,0.621-2.625,2.717-1.715,4.398l5.308,9.806
		c-4.404-0.587-8.808,3.077-8.808,3.077c-20.259,0.729-21.385,16.094-21.385,16.094h63.029l-1.508-9.504l-13.549-28.322
		c-0.678-1.417-2.31-2.101-3.796-1.59l-3.377,1.161c-2.085-6.348-3.807-13.329-3.205-17.811c0.466-3.471-4.715-16.261-5.36-18.317
		c-0.131-0.419-0.861-2.279-1.93-4.951l2.181,1.466l-8.584-26.793l0.966-2.899l-2.969-14.292l13.476-28.716
		c-0.284,4.009-0.639,8.499-0.527,10.128c0.229,3.323,1.49-9.855,3.782-13.179c2.292-3.323,4.011-5.272,5.501-9.053
		c0.841-2.134,1.535-6.966,1.981-10.774l2.334-4.974l5.763,0.548l-3.081,52.383l10.711,25.194l7.247,18.182V374.77l6.941,20.794
		v-8.588l2.698,1.957c4.099,9.245,10.49,25.719,15.928,37.502c3.067,6.645,5.083,12.512,6.393,17.325l-1.967,0.676
		c-1.808,0.621-2.625,2.717-1.715,4.398l5.308,9.806C312.952,458.051,308.547,461.716,308.547,461.716z M310.092,81.568
		L310.092,81.568l3.203,5.916c1.608,5.425,3.169,10.625,4.167,13.941c-0.563,0.555-0.942,1.273-1.076,2.054
		c-0.258-0.267-0.555-0.489-0.876-0.668C314.526,98.513,312.249,89.607,310.092,81.568z M161.525,144.975
		c-4.948-7.294-10.4-15.569-14.025-21.395l0.081-0.179l5.54,2.409c3.054,4.28,7.186,10.057,11.167,15.618l-0.872-0.23l1.27,5.249
		L161.525,144.975z M236.888,213.807c0.033,0.038,0.069,0.074,0.103,0.112l0.016,0.055
		C236.967,213.916,236.927,213.865,236.888,213.807z M236.247,128.186c0,0,1.725-3.174,2.415-3.085
		c0.69,0.089,4.278,7.709,2.208,9.02c-2.07,1.311-2.415-3.658-2.553-4.624c-0.138-0.966-0.69,2.07-2.07,4.209
		C234.867,135.846,233.901,132.879,236.247,128.186z M227.398,127.181c-2.846-0.254-5.069-1.398-4.814-4.243
		c0.254-2.846,2.767-4.946,5.613-4.692c2.846,0.254,4.946,2.767,4.692,5.613C232.634,126.704,230.243,127.435,227.398,127.181z
		 M246.954,149.171c-0.688,1.547-2.98,0.802-3.724-0.115c-0.745-0.917-2.808-1.146-3.61-0.057s-2.521,0.917-2.674-0.573
		c-0.153-1.49-3.514-1.719-4.775-0.688c-1.261,1.031-0.688,4.699-1.433,4.985c-0.745,0.287-2.273,0.076-1.356-6.57
		c0.917-6.647,2.445-8.098,7.563-9.215c1.92-0.255,3.488-0.089,4.778,0.354c0.64,2.891,1.096,2.866,2.308,3.371
		c0.703,0.293,1.403,0.39,1.922,0.416C247.593,144.307,247.33,148.324,246.954,149.171z M242.236,211.322
		c3.174,1.917,6.47,3.442,9.344,4.597l0.886,2.847c-3.106-0.5-6.783-1.758-10.23-4.594V211.322z M242.236,218.225
		c3.799,2.312,8.059,3.668,11.447,4.449l0.428,1.375c-3.366-0.23-7.742-1.265-11.875-4.455V218.225z M242.236,223.903v-1.183
		c4.43,2.94,9.391,4.009,12.826,4.385l0.273,0.878C251.811,228.253,246.585,227.795,242.236,223.903z M250.317,128.556
		c-2.846-0.254-5.069-1.398-4.814-4.243c0.254-2.846,2.767-4.946,5.613-4.692c2.846,0.254,4.946,2.767,4.692,5.613
		C255.553,128.079,253.163,128.81,250.317,128.556z M311.43,424.985c-3.634-10.213-10.498-25.509-15.742-36.591v-4.151
		c7.531,16.368,19.459,42.452,25.962,57.482l-2.86,0.983C316.388,437.476,313.689,431.335,311.43,424.985z"/>
</g>
</svg>
